<svg xmlns="http://www.w3.org/2000/svg" xmlns:xlink="http://www.w3.org/1999/xlink" viewBox="0 0 435 409">
  <defs>
    <clipPath id="clip-Prancheta_21">
      <rect width="435" height="409"/>
    </clipPath>
  </defs>
  <g id="Prancheta_21" data-name="Prancheta – 21" clip-path="url(#clip-Prancheta_21)">
    <g id="calendar" transform="translate(-38 -35)">
      <path id="Caminho_326" data-name="Caminho 326" d="M384,80H352V64a16,16,0,0,0-32,0V80H272V64a16,16,0,0,0-32,0V80H192V64a16,16,0,0,0-32,0V80H128a80.09,80.09,0,0,0-80,80V352a80.09,80.09,0,0,0,80,80H384a80.09,80.09,0,0,0,80-80V160a80.09,80.09,0,0,0-80-80ZM128,112h32v16a16,16,0,0,0,32,0V112h48v16a16,16,0,0,0,32,0V112h48v16a16,16,0,0,0,32,0V112h32a48.05,48.05,0,0,1,48,48v16H80V160a48.05,48.05,0,0,1,48-48ZM384,400H128a48.05,48.05,0,0,1-48-48V208H432V352A48.05,48.05,0,0,1,384,400Z" class="svg-fill"/>
      <circle id="Elipse_201" data-name="Elipse 201" cx="16" cy="16" r="16" transform="translate(304 256)" class="svg-fill"/>
      <circle id="Elipse_209" data-name="Elipse 209" cx="16" cy="16" r="16" transform="translate(368 256)" class="svg-fill"/>
      <circle id="Elipse_202" data-name="Elipse 202" cx="16" cy="16" r="16" transform="translate(240 256)" class="svg-fill"/>
      <circle id="Elipse_203" data-name="Elipse 203" cx="16" cy="16" r="16" transform="translate(176 256)" class="svg-fill"/>
      <circle id="Elipse_207" data-name="Elipse 207" cx="16" cy="16" r="16" transform="translate(112 256)" class="svg-fill"/>
      <circle id="Elipse_204" data-name="Elipse 204" cx="16" cy="16" r="16" transform="translate(240 320)" class="svg-fill"/>
      <circle id="Elipse_208" data-name="Elipse 208" cx="16" cy="16" r="16" transform="translate(304 320)" class="svg-fill"/>
      <circle id="Elipse_210" data-name="Elipse 210" cx="16" cy="16" r="16" transform="translate(368 320)" class="svg-fill"/>
      <circle id="Elipse_205" data-name="Elipse 205" cx="16" cy="16" r="16" transform="translate(176 320)" class="svg-fill"/>
      <circle id="Elipse_206" data-name="Elipse 206" cx="16" cy="16" r="16" transform="translate(112 320)" class="svg-fill"/>
    </g>
  </g>
</svg>
