<svg xmlns="http://www.w3.org/2000/svg" viewBox="0 0 512 512"><defs><style>.cls-1{fill:#fff;}</style></defs><title>Categories</title><g id="label"><path class="svg-fill" d="M385.89,123,324.66,62a47.66,47.66,0,0,0-33.89-14h-69a48.21,48.21,0,0,0-34.91,15l-61.8,65.47A47.83,47.83,0,0,0,112,161.47V416a48.05,48.05,0,0,0,48,48H352a48.05,48.05,0,0,0,48-48V157A48.31,48.31,0,0,0,385.89,123ZM368,416a16,16,0,0,1-16,16H160a16,16,0,0,1-16-16V161.47a16,16,0,0,1,4.36-11L210.16,85a16.06,16.06,0,0,1,11.64-5h69a15.9,15.9,0,0,1,11.3,4.67l61.23,61A16.1,16.1,0,0,1,368,157Z"/><path class="svg-fill" d="M256,144a64,64,0,1,0,64,64A64.07,64.07,0,0,0,256,144Zm0,96a32,32,0,1,1,32-32A32,32,0,0,1,256,240Z"/><path class="svg-fill" d="M304,336H208a16,16,0,0,0,0,32h96a16,16,0,0,0,0-32Z"/></g></svg>