<svg xmlns="http://www.w3.org/2000/svg" viewBox="0 0 512 512"><defs><style>.cls-1{fill:#fff;}</style></defs><title>Copy Notes</title><g id="copy_note" data-name="copy note"><path class="svg-fill" d="M385,144H336a80.09,80.09,0,0,0-80-80,16,16,0,0,0-32,0H208a16,16,0,0,0-32,0H160a16,16,0,0,0-32,0,80.09,80.09,0,0,0-80,80V304a80.09,80.09,0,0,0,80,80h49a80.09,80.09,0,0,0,80,80H385a80.09,80.09,0,0,0,80-80V224A80.09,80.09,0,0,0,385,144ZM128,352a48.05,48.05,0,0,1-48-48V144a48.05,48.05,0,0,1,48-48,16,16,0,0,0,32,0h16a16,16,0,0,0,32,0h16a16,16,0,0,0,32,0,48.05,48.05,0,0,1,48,48H257a80.09,80.09,0,0,0-80,80V352Zm305,32a48.05,48.05,0,0,1-48,48H257a48.05,48.05,0,0,1-48-48V224a48.05,48.05,0,0,1,48-48H385a48.05,48.05,0,0,1,48,48Z"/><path class="svg-fill" d="M369,229H273a16,16,0,0,0,0,32h96a16,16,0,0,0,0-32Z"/><path class="svg-fill" d="M369,288H273a16,16,0,0,0,0,32h96a16,16,0,0,0,0-32Z"/><path class="svg-fill" d="M369,347H273a16,16,0,0,0,0,32h96a16,16,0,0,0,0-32Z"/></g></svg>