<svg xmlns="http://www.w3.org/2000/svg" viewBox="0 0 512 512"><defs><style>.cls-1{fill:#fff;}</style></defs><title>Completed Tasks</title><g id="completed_tasks" data-name="completed tasks"><path class="svg-fill" d="M429.16,361.08l.24-.34c.24-.38.47-.76.68-1.15a.43.43,0,0,0,0-.07c.22-.41.42-.84.6-1.27l.15-.37c.13-.32.25-.66.35-1,0-.13.09-.26.13-.4.13-.43.24-.87.33-1.31,0,0,0,0,0-.05.09-.46.16-.93.21-1.4l0-.39c0-.37.05-.73.06-1.1,0-.08,0-.16,0-.24V160a80.09,80.09,0,0,0-80-80V64a16,16,0,0,0-32,0V80H272V64a16,16,0,0,0-32,0V80H192V64a16,16,0,0,0-32,0V80a80.09,80.09,0,0,0-80,80V384a80.09,80.09,0,0,0,80,80H320.25c.44,0,.88,0,1.31-.07.28,0,.55-.08.82-.12s.49-.06.73-.11.55-.13.83-.2l.68-.17c.26-.08.52-.18.77-.28s.47-.15.7-.25l.7-.32c.24-.12.49-.22.72-.34s.44-.27.66-.4.47-.26.69-.41.5-.36.74-.54.36-.26.53-.4a13.25,13.25,0,0,0,1.18-1.07l96-96a13.7,13.7,0,0,0,1-1.06l.27-.32C428.75,361.65,429,361.37,429.16,361.08ZM112,384V160a48.05,48.05,0,0,1,48-48v16a16,16,0,0,0,32,0V112h48v16a16,16,0,0,0,32,0V112h48v16a16,16,0,0,0,32,0V112a48.05,48.05,0,0,1,48,48V336H320a16,16,0,0,0-16,16v80H160A48.05,48.05,0,0,1,112,384Zm224-16h41.37L336,409.37Z"/><path class="svg-fill" d="M315.31,251.31a16,16,0,0,0-22.62-22.62L240,281.37l-20.69-20.68a16,16,0,0,0-22.62,22.62l32,32a16,16,0,0,0,22.62,0Z"/></g></svg>