<svg xmlns="http://www.w3.org/2000/svg" xmlns:xlink="http://www.w3.org/1999/xlink" viewBox="0 0 74 71">
  <defs>
    <clipPath id="clip-Prancheta_16">
      <rect width="74" height="71"/>
    </clipPath>
  </defs>
  <g id="Prancheta_16" data-name="Prancheta – 16" clip-path="url(#clip-Prancheta_16)">
    <g id="Grupo_189" data-name="Grupo 189" transform="translate(4.882 7.466)">
      <g id="Grupo_186" data-name="Grupo 186" transform="translate(9.119 7.297)">
        <g id="Grupo_71" data-name="Grupo 71" transform="translate(0 0.658)">
          <g id="Grupo_54" data-name="Grupo 54">
            <g id="Caminho_288" data-name="Caminho 288" fill="none">
              <path d="M6.971,0h25.1A6.971,6.971,0,0,1,39.04,6.971V38.343a6.971,6.971,0,0,1-6.971,6.971H6.971A6.971,6.971,0,0,1,0,38.343V6.971A6.971,6.971,0,0,1,6.971,0Z" stroke="none"/>
              <path d="M 6.971397399902344 2.999996185302734 C 4.781558990478516 2.999996185302734 2.999996185302734 4.78155517578125 2.999996185302734 6.971393585205078 L 2.999996185302734 38.34265518188477 C 2.999996185302734 40.53248596191406 4.781558990478516 42.31404495239258 6.971397399902344 42.31404495239258 L 32.06840896606445 42.31404495239258 C 34.25823593139648 42.31404495239258 36.03979873657227 40.53248596191406 36.03979873657227 38.34265518188477 L 36.03979873657227 6.971393585205078 C 36.03979873657227 4.78155517578125 34.25823593139648 2.999996185302734 32.06840896606445 2.999996185302734 L 6.971397399902344 2.999996185302734 M 6.971397399902344 -3.814697265625e-06 L 32.06840896606445 -3.814697265625e-06 C 35.91859817504883 -3.814697265625e-06 39.03979873657227 3.121192932128906 39.03979873657227 6.971393585205078 L 39.03979873657227 38.34265518188477 C 39.03979873657227 42.19284439086914 35.91859817504883 45.31404495239258 32.06840896606445 45.31404495239258 L 6.971397399902344 45.31404495239258 C 3.121196746826172 45.31404495239258 -3.814697265625e-06 42.19284439086914 -3.814697265625e-06 38.34265518188477 L -3.814697265625e-06 6.971393585205078 C -3.814697265625e-06 3.121192932128906 3.121196746826172 -3.814697265625e-06 6.971397399902344 -3.814697265625e-06 Z" stroke="none" class="svg-fill"/>
            </g>
          </g>
        </g>
      </g>
      <path id="Subtração_9" data-name="Subtração 9" d="M21588.1-16828.912l0,0-.59-.27-5.648-2.594-.467-.213.467-.217,5.648-2.609.592-.277v.479l.83.043v-.385h27.227v5.92h-27.227v-.191h-.83v.316Zm31.6-.125h-1.27v-5.92h1.27a1.006,1.006,0,0,1,1,1v3.912A1.006,1.006,0,0,1,21619.7-16829.037Z" transform="translate(-2383.034 27296.422) rotate(-47)" class="svg-fill svg-stroke" stroke-linejoin="round" stroke-width="1"/>
    </g>
  </g>
</svg>
