<svg xmlns="http://www.w3.org/2000/svg" xmlns:xlink="http://www.w3.org/1999/xlink" viewBox="0 0 49 47">
  <defs>
    <clipPath id="clip-Prancheta_8">
      <rect width="49" height="47"/>
    </clipPath>
  </defs>
  <g id="Prancheta_8" data-name="Prancheta – 8" clip-path="url(#clip-Prancheta_8)">
    <g id="Grupo_158" data-name="Grupo 158" transform="translate(5 0.297)">
      <g id="Grupo_71" data-name="Grupo 71" transform="translate(0 0.658)">
        <g id="Grupo_54" data-name="Grupo 54">
          <g id="Caminho_288" data-name="Caminho 288" fill="none">
            <path d="M6.971,0h25.1A6.971,6.971,0,0,1,39.04,6.971V38.343a6.971,6.971,0,0,1-6.971,6.971H6.971A6.971,6.971,0,0,1,0,38.343V6.971A6.971,6.971,0,0,1,6.971,0Z" stroke="none"/>
            <path d="M 6.971397399902344 2.999996185302734 C 4.781558990478516 2.999996185302734 2.999996185302734 4.78155517578125 2.999996185302734 6.971393585205078 L 2.999996185302734 38.34265518188477 C 2.999996185302734 40.53248596191406 4.781558990478516 42.31404495239258 6.971397399902344 42.31404495239258 L 32.06840896606445 42.31404495239258 C 34.25823593139648 42.31404495239258 36.03979873657227 40.53248596191406 36.03979873657227 38.34265518188477 L 36.03979873657227 6.971393585205078 C 36.03979873657227 4.78155517578125 34.25823593139648 2.999996185302734 32.06840896606445 2.999996185302734 L 6.971397399902344 2.999996185302734 M 6.971397399902344 -3.814697265625e-06 L 32.06840896606445 -3.814697265625e-06 C 35.91859817504883 -3.814697265625e-06 39.03979873657227 3.121192932128906 39.03979873657227 6.971393585205078 L 39.03979873657227 38.34265518188477 C 39.03979873657227 42.19284439086914 35.91859817504883 45.31404495239258 32.06840896606445 45.31404495239258 L 6.971397399902344 45.31404495239258 C 3.121196746826172 45.31404495239258 -3.814697265625e-06 42.19284439086914 -3.814697265625e-06 38.34265518188477 L -3.814697265625e-06 6.971393585205078 C -3.814697265625e-06 3.121192932128906 3.121196746826172 -3.814697265625e-06 6.971397399902344 -3.814697265625e-06 Z" stroke="none" class="svg-fill"/>
          </g>
        </g>
      </g>
      <text id="_" data-name="$" transform="translate(10.881 34.703)" class="svg-fill" font-size="32" font-family="NotoSans-SemiBold, Noto Sans" font-weight="600" letter-spacing="-0.022em"><tspan x="0" y="0">$</tspan></text>
    </g>
  </g>
</svg>
