<svg xmlns="http://www.w3.org/2000/svg" viewBox="0 0 512 512"><defs><style>.cls-1{fill:#fff;}</style></defs><title>Expenses</title><g id="expenses"><path class="svg-fill" d="M416,144H368V128a48.05,48.05,0,0,0-48-48H128a80.09,80.09,0,0,0-80,80V384a48.05,48.05,0,0,0,48,48H416a48.05,48.05,0,0,0,48-48V192A48.05,48.05,0,0,0,416,144ZM128,112H320a16,16,0,0,1,16,16v16H82.74A48.1,48.1,0,0,1,128,112ZM432,384a16,16,0,0,1-16,16H96a16,16,0,0,1-16-16V176H416a16,16,0,0,1,16,16Z"/><circle class="svg-fill" cx="352" cy="288" r="32"/></g></svg>