<svg xmlns="http://www.w3.org/2000/svg" xmlns:xlink="http://www.w3.org/1999/xlink" viewBox="0 0 49 47">
  <defs>
    <clipPath id="clip-Prancheta_8">
      <rect width="49" height="47"/>
    </clipPath>
  </defs>
  <g id="Prancheta_8" data-name="Prancheta – 8" clip-path="url(#clip-Prancheta_8)">
    <g id="Grupo_162" data-name="Grupo 162" transform="translate(5 0.297)">
      <g id="Grupo_71" data-name="Grupo 71" transform="translate(0 0.658)">
        <g id="Grupo_54" data-name="Grupo 54">
          <g id="Caminho_288" data-name="Caminho 288" fill="none">
            <path d="M6.971,0h25.1A6.971,6.971,0,0,1,39.04,6.971V38.343a6.971,6.971,0,0,1-6.971,6.971H6.971A6.971,6.971,0,0,1,0,38.343V6.971A6.971,6.971,0,0,1,6.971,0Z" stroke="none"/>
            <path d="M 6.971397399902344 2.999996185302734 C 4.781558990478516 2.999996185302734 2.999996185302734 4.78155517578125 2.999996185302734 6.971393585205078 L 2.999996185302734 38.34265518188477 C 2.999996185302734 40.53248596191406 4.781558990478516 42.31404495239258 6.971397399902344 42.31404495239258 L 32.06840896606445 42.31404495239258 C 34.25823593139648 42.31404495239258 36.03979873657227 40.53248596191406 36.03979873657227 38.34265518188477 L 36.03979873657227 6.971393585205078 C 36.03979873657227 4.78155517578125 34.25823593139648 2.999996185302734 32.06840896606445 2.999996185302734 L 6.971397399902344 2.999996185302734 M 6.971397399902344 -3.814697265625e-06 L 32.06840896606445 -3.814697265625e-06 C 35.91859817504883 -3.814697265625e-06 39.03979873657227 3.121192932128906 39.03979873657227 6.971393585205078 L 39.03979873657227 38.34265518188477 C 39.03979873657227 42.19284439086914 35.91859817504883 45.31404495239258 32.06840896606445 45.31404495239258 L 6.971397399902344 45.31404495239258 C 3.121196746826172 45.31404495239258 -3.814697265625e-06 42.19284439086914 -3.814697265625e-06 38.34265518188477 L -3.814697265625e-06 6.971393585205078 C -3.814697265625e-06 3.121192932128906 3.121196746826172 -3.814697265625e-06 6.971397399902344 -3.814697265625e-06 Z" stroke="none" class="svg-fill"/>
          </g>
        </g>
      </g>
      <path id="Caminho_308" data-name="Caminho 308" d="M8.1,1.856V-1.376a19.657,19.657,0,0,1-3.6-.368,13.774,13.774,0,0,1-2.864-.88V-6.208A17.979,17.979,0,0,0,4.64-5.152,15.688,15.688,0,0,0,8.1-4.608v-5.44a21.761,21.761,0,0,1-3.76-1.68,5.776,5.776,0,0,1-2.08-1.952A5.076,5.076,0,0,1,1.6-16.32a4.544,4.544,0,0,1,1.792-3.792,8.569,8.569,0,0,1,4.7-1.616v-2.56h2.112v2.5a17.973,17.973,0,0,1,3.264.4,15.431,15.431,0,0,1,2.88.944L15.1-17.28a17.229,17.229,0,0,0-2.448-.784,16.007,16.007,0,0,0-2.448-.4v5.312A25.542,25.542,0,0,1,13.6-11.808a6.813,6.813,0,0,1,2.384,1.84,4.455,4.455,0,0,1,.88,2.864A4.889,4.889,0,0,1,15.184-3.3a8.541,8.541,0,0,1-4.976,1.824V1.856Zm0-15.808V-18.4q-2.528.288-2.528,1.984a1.888,1.888,0,0,0,.576,1.44A5.594,5.594,0,0,0,8.1-13.952Zm2.112,9.216Q12.9-5.12,12.9-6.88a1.688,1.688,0,0,0-.624-1.376A7.183,7.183,0,0,0,10.208-9.28Z" transform="translate(10.881 34.703)" class="svg-fill"/>
    </g>
  </g>
</svg>
