<svg xmlns="http://www.w3.org/2000/svg" xmlns:xlink="http://www.w3.org/1999/xlink" viewBox="0 0 53 39">
  <defs>
    <clipPath id="clip-path">
      <rect id="Retângulo_278" data-name="Retângulo 278" width="41" height="28" transform="translate(0.06 0.228)" class="svg-fill"/>
    </clipPath>
    <clipPath id="clip-Prancheta_10">
      <rect width="53" height="39"/>
    </clipPath>
  </defs>
  <g id="Prancheta_10" data-name="Prancheta – 10" clip-path="url(#clip-Prancheta_10)">
    <g id="Prancheta_1" data-name="Prancheta – 1" transform="translate(5.94 5.772)" clip-path="url(#clip-path)">
      <g id="noun_visibility_1119825" transform="translate(1.462 1.219)">
        <path id="Caminho_5" data-name="Caminho 5" d="M29.167,23.333c-8.2,0-15.333,5.147-19.167,12.778,3.834,7.632,10.971,12.777,19.167,12.777S44.5,43.743,48.333,36.111C44.5,28.481,37.362,23.333,29.167,23.333Zm0,22.361c-6.167,0-11.992-3.633-15.527-9.584,3.536-5.95,9.36-9.584,15.527-9.584s11.992,3.633,15.527,9.584C41.158,42.061,35.334,45.694,29.167,45.694Z" transform="translate(-10 -23.333)" class="svg-fill"/>
        <path id="Caminho_6" data-name="Caminho 6" d="M42.186,35a7.187,7.187,0,1,0,7.187,7.187A7.187,7.187,0,0,0,42.186,35Zm0,11.181a3.993,3.993,0,1,1,3.993-3.993,3.993,3.993,0,0,1-3.993,3.993Z" transform="translate(-23.02 -29.41)" class="svg-fill"/>
      </g>
    </g>
  </g>
</svg>
