<svg xmlns="http://www.w3.org/2000/svg" viewBox="0 0 512 512"><defs><style>.cls-1{fill:#fff;}</style></defs><title>Calendar</title><g id="calendar"><path class="svg-fill" d="M384,80H352V64a16,16,0,0,0-32,0V80H272V64a16,16,0,0,0-32,0V80H192V64a16,16,0,0,0-32,0V80H128a80.09,80.09,0,0,0-80,80V352a80.09,80.09,0,0,0,80,80H384a80.09,80.09,0,0,0,80-80V160A80.09,80.09,0,0,0,384,80ZM128,112h32v16a16,16,0,0,0,32,0V112h48v16a16,16,0,0,0,32,0V112h48v16a16,16,0,0,0,32,0V112h32a48.05,48.05,0,0,1,48,48v16H80V160A48.05,48.05,0,0,1,128,112ZM384,400H128a48.05,48.05,0,0,1-48-48V208H432V352A48.05,48.05,0,0,1,384,400Z"/><circle class="svg-fill" cx="352" cy="272" r="16"/><circle class="svg-fill" cx="288" cy="272" r="16"/><circle class="svg-fill" cx="224" cy="272" r="16"/><circle class="svg-fill" cx="288" cy="336" r="16"/><circle class="svg-fill" cx="224" cy="336" r="16"/><circle class="svg-fill" cx="160" cy="336" r="16"/></g></svg>