<svg xmlns="http://www.w3.org/2000/svg" xmlns:xlink="http://www.w3.org/1999/xlink" viewBox="0 0 49 47">
  <defs>
    <clipPath id="clip-Prancheta_8">
      <rect width="49" height="47"/>
    </clipPath>
  </defs>
  <g id="Prancheta_8" data-name="Prancheta – 8" clip-path="url(#clip-Prancheta_8)">
    <g id="Grupo_158" data-name="Grupo 158" transform="translate(-71 -228)">
      <g id="noun_Home_2742743" transform="translate(72 228.455)">
        <g id="Layer_2_copy" data-name="Layer 2 copy" transform="translate(1.999 2.545)">
          <path id="Caminho_305" data-name="Caminho 305" d="M39.353,43.845H7.048A5.048,5.048,0,0,1,2,38.8V20.626a5.007,5.007,0,0,1,1.9-4.038L20.051,3.666a4.987,4.987,0,0,1,6.3,0L42.5,16.588a5.007,5.007,0,0,1,1.9,4.038V38.8A5.048,5.048,0,0,1,39.353,43.845ZM23.2,4.594a3.069,3.069,0,0,0-1.9.666L5.15,18.183A3.049,3.049,0,0,0,4.02,20.545V38.717a3.029,3.029,0,0,0,3.029,3.109H39.353A3.029,3.029,0,0,0,42.382,38.8V20.626a3.049,3.049,0,0,0-1.131-2.362L25.1,5.341a3.069,3.069,0,0,0-1.9-.747Z" transform="translate(-1.999 -2.545)" class="svg-fill svg-stroke" stroke-width="1"/>
        </g>
      </g>
      <g id="Caminho_306" data-name="Caminho 306" transform="translate(88 246)" fill="none">
        <path d="M7.5,0A7.5,7.5,0,0,1,15,7.5V26H0V7.5A7.5,7.5,0,0,1,7.5,0Z" stroke="none"/>
        <path d="M 7.5 2.299999237060547 C 4.632710456848145 2.299999237060547 2.300000190734863 4.632709503173828 2.300000190734863 7.5 L 2.300000190734863 23.70000076293945 L 12.69999980926514 23.70000076293945 L 12.69999980926514 7.5 C 12.69999980926514 4.632709503173828 10.36729049682617 2.299999237060547 7.5 2.299999237060547 M 7.5 0 C 11.64213943481445 0 15 3.357860565185547 15 7.5 L 15 26 L 0 26 L 0 7.5 C 0 3.357860565185547 3.35785961151123 0 7.5 0 Z" stroke="none" class="svg-fill"/>
      </g>
    </g>
  </g>
</svg>
