<svg xmlns="http://www.w3.org/2000/svg" xmlns:xlink="http://www.w3.org/1999/xlink" width="63" height="47" viewBox="0 0 63 47">
  <defs>
    <clipPath id="clip-Prancheta_13">
      <rect width="63" height="47"/>
    </clipPath>
  </defs>
  <g id="Prancheta_13" data-name="Prancheta – 13" clip-path="url(#clip-Prancheta_13)">
    <g id="Grupo_189" data-name="Grupo 189" transform="translate(9 0.999)">
      <g id="Grupo_184" data-name="Grupo 184" transform="translate(-2 -0.657)">
        <g id="Grupo_71" data-name="Grupo 71" transform="translate(0 0.658)">
          <g id="Grupo_54" data-name="Grupo 54">
            <g id="Caminho_288" data-name="Caminho 288" fill="none">
              <path d="M6.971,0h25.1A6.971,6.971,0,0,1,39.04,6.971V38.343a6.971,6.971,0,0,1-6.971,6.971H6.971A6.971,6.971,0,0,1,0,38.343V6.971A6.971,6.971,0,0,1,6.971,0Z" stroke="none"/>
              <path d="M 6.971397399902344 2.999996185302734 C 4.781558990478516 2.999996185302734 2.999996185302734 4.78155517578125 2.999996185302734 6.971393585205078 L 2.999996185302734 38.34265518188477 C 2.999996185302734 40.53248596191406 4.781558990478516 42.31404495239258 6.971397399902344 42.31404495239258 L 32.06840896606445 42.31404495239258 C 34.25823593139648 42.31404495239258 36.03979873657227 40.53248596191406 36.03979873657227 38.34265518188477 L 36.03979873657227 6.971393585205078 C 36.03979873657227 4.78155517578125 34.25823593139648 2.999996185302734 32.06840896606445 2.999996185302734 L 6.971397399902344 2.999996185302734 M 6.971397399902344 -3.814697265625e-06 L 32.06840896606445 -3.814697265625e-06 C 35.91859817504883 -3.814697265625e-06 39.03979873657227 3.121192932128906 39.03979873657227 6.971393585205078 L 39.03979873657227 38.34265518188477 C 39.03979873657227 42.19284439086914 35.91859817504883 45.31404495239258 32.06840896606445 45.31404495239258 L 6.971397399902344 45.31404495239258 C 3.121196746826172 45.31404495239258 -3.814697265625e-06 42.19284439086914 -3.814697265625e-06 38.34265518188477 L -3.814697265625e-06 6.971393585205078 C -3.814697265625e-06 3.121192932128906 3.121196746826172 -3.814697265625e-06 6.971397399902344 -3.814697265625e-06 Z" stroke="none" class="svg-fill"/>
            </g>
          </g>
        </g>
      </g>
      <rect id="Retângulo_295" data-name="Retângulo 295" width="29" height="4" rx="2" transform="translate(20 21)" class="svg-fill"/>
      <g id="Grupo_188" data-name="Grupo 188" transform="translate(-12.504 -11.782)">
        <rect id="Retângulo_291" data-name="Retângulo 291" width="13.483" height="4.815" rx="2.408" transform="translate(54.282 41.06) rotate(-45)" class="svg-fill"/>
        <rect id="Retângulo_292" data-name="Retângulo 292" width="13.483" height="4.815" rx="2.408" transform="translate(57.687 24.782) rotate(45)" class="svg-fill"/>
      </g>
      <g id="Grupo_185" data-name="Grupo 185" transform="translate(-2 -0.658)">
        <g id="Grupo_71-2" data-name="Grupo 71" transform="translate(0 0.658)">
          <g id="Grupo_54-2" data-name="Grupo 54">
            <g id="Caminho_288-2" data-name="Caminho 288" fill="none">
              <path d="M6.971,0h25.1A6.971,6.971,0,0,1,39.04,6.971V38.343a6.971,6.971,0,0,1-6.971,6.971H6.971A6.971,6.971,0,0,1,0,38.343V6.971A6.971,6.971,0,0,1,6.971,0Z" stroke="none"/>
              <path d="M 6.971397399902344 2.999996185302734 C 4.781558990478516 2.999996185302734 2.999996185302734 4.78155517578125 2.999996185302734 6.971393585205078 L 2.999996185302734 38.34265518188477 C 2.999996185302734 40.53248596191406 4.781558990478516 42.31404495239258 6.971397399902344 42.31404495239258 L 32.06840896606445 42.31404495239258 C 34.25823593139648 42.31404495239258 36.03979873657227 40.53248596191406 36.03979873657227 38.34265518188477 L 36.03979873657227 6.971393585205078 C 36.03979873657227 4.78155517578125 34.25823593139648 2.999996185302734 32.06840896606445 2.999996185302734 L 6.971397399902344 2.999996185302734 M 6.971397399902344 -3.814697265625e-06 L 32.06840896606445 -3.814697265625e-06 C 35.91859817504883 -3.814697265625e-06 39.03979873657227 3.121192932128906 39.03979873657227 6.971393585205078 L 39.03979873657227 38.34265518188477 C 39.03979873657227 42.19284439086914 35.91859817504883 45.31404495239258 32.06840896606445 45.31404495239258 L 6.971397399902344 45.31404495239258 C 3.121196746826172 45.31404495239258 -3.814697265625e-06 42.19284439086914 -3.814697265625e-06 38.34265518188477 L -3.814697265625e-06 6.971393585205078 C -3.814697265625e-06 3.121192932128906 3.121196746826172 -3.814697265625e-06 6.971397399902344 -3.814697265625e-06 Z" stroke="none" class="svg-fill"/>
            </g>
          </g>
        </g>
      </g>
      <rect id="Retângulo_296" data-name="Retângulo 296" width="29" height="4" rx="2" transform="translate(20 21)" class="svg-fill"/>
      <g id="Grupo_186" data-name="Grupo 186" transform="translate(-2 -0.658)">
        <g id="Grupo_71-3" data-name="Grupo 71" transform="translate(0 0.658)">
          <g id="Grupo_54-3" data-name="Grupo 54">
            <g id="Caminho_288-3" data-name="Caminho 288" fill="none">
              <path d="M6.971,0h25.1A6.971,6.971,0,0,1,39.04,6.971V38.343a6.971,6.971,0,0,1-6.971,6.971H6.971A6.971,6.971,0,0,1,0,38.343V6.971A6.971,6.971,0,0,1,6.971,0Z" stroke="none"/>
              <path d="M 6.971397399902344 2.999996185302734 C 4.781558990478516 2.999996185302734 2.999996185302734 4.78155517578125 2.999996185302734 6.971393585205078 L 2.999996185302734 38.34265518188477 C 2.999996185302734 40.53248596191406 4.781558990478516 42.31404495239258 6.971397399902344 42.31404495239258 L 32.06840896606445 42.31404495239258 C 34.25823593139648 42.31404495239258 36.03979873657227 40.53248596191406 36.03979873657227 38.34265518188477 L 36.03979873657227 6.971393585205078 C 36.03979873657227 4.78155517578125 34.25823593139648 2.999996185302734 32.06840896606445 2.999996185302734 L 6.971397399902344 2.999996185302734 M 6.971397399902344 -3.814697265625e-06 L 32.06840896606445 -3.814697265625e-06 C 35.91859817504883 -3.814697265625e-06 39.03979873657227 3.121192932128906 39.03979873657227 6.971393585205078 L 39.03979873657227 38.34265518188477 C 39.03979873657227 42.19284439086914 35.91859817504883 45.31404495239258 32.06840896606445 45.31404495239258 L 6.971397399902344 45.31404495239258 C 3.121196746826172 45.31404495239258 -3.814697265625e-06 42.19284439086914 -3.814697265625e-06 38.34265518188477 L -3.814697265625e-06 6.971393585205078 C -3.814697265625e-06 3.121192932128906 3.121196746826172 -3.814697265625e-06 6.971397399902344 -3.814697265625e-06 Z" stroke="none" class="svg-fill"/>
            </g>
          </g>
        </g>
      </g>
      <rect id="Retângulo_297" data-name="Retângulo 297" width="29" height="4" rx="2" transform="translate(20 21)" class="svg-fill" />
      <g id="Grupo_187" data-name="Grupo 187" transform="translate(-2 -0.658)">
        <g id="Grupo_71-4" data-name="Grupo 71" transform="translate(0 0.658)">
          <g id="Grupo_54-4" data-name="Grupo 54">
            <g id="Caminho_288-4" data-name="Caminho 288" fill="none">
              <path d="M6.971,0h25.1A6.971,6.971,0,0,1,39.04,6.971V38.343a6.971,6.971,0,0,1-6.971,6.971H6.971A6.971,6.971,0,0,1,0,38.343V6.971A6.971,6.971,0,0,1,6.971,0Z" stroke="none"/>
              <path d="M 6.971397399902344 2.999996185302734 C 4.781558990478516 2.999996185302734 2.999996185302734 4.78155517578125 2.999996185302734 6.971393585205078 L 2.999996185302734 38.34265518188477 C 2.999996185302734 40.53248596191406 4.781558990478516 42.31404495239258 6.971397399902344 42.31404495239258 L 32.06840896606445 42.31404495239258 C 34.25823593139648 42.31404495239258 36.03979873657227 40.53248596191406 36.03979873657227 38.34265518188477 L 36.03979873657227 6.971393585205078 C 36.03979873657227 4.78155517578125 34.25823593139648 2.999996185302734 32.06840896606445 2.999996185302734 L 6.971397399902344 2.999996185302734 M 6.971397399902344 -3.814697265625e-06 L 32.06840896606445 -3.814697265625e-06 C 35.91859817504883 -3.814697265625e-06 39.03979873657227 3.121192932128906 39.03979873657227 6.971393585205078 L 39.03979873657227 38.34265518188477 C 39.03979873657227 42.19284439086914 35.91859817504883 45.31404495239258 32.06840896606445 45.31404495239258 L 6.971397399902344 45.31404495239258 C 3.121196746826172 45.31404495239258 -3.814697265625e-06 42.19284439086914 -3.814697265625e-06 38.34265518188477 L -3.814697265625e-06 6.971393585205078 C -3.814697265625e-06 3.121192932128906 3.121196746826172 -3.814697265625e-06 6.971397399902344 -3.814697265625e-06 Z" stroke="none" class="svg-fill"/>
            </g>
          </g>
        </g>
      </g>
    </g>
  </g>
</svg>
