<svg xmlns="http://www.w3.org/2000/svg" viewBox="0 0 512 512"><defs><style>.cls-1{fill:#fff;}</style></defs><title>Logout</title><g id="logout"><path class="svg-fill" d="M431.92,254.41c0-.19-.06-.37-.08-.56s-.09-.66-.15-1-.11-.46-.17-.68-.13-.56-.21-.84-.16-.44-.24-.66-.18-.55-.29-.82-.19-.4-.28-.59-.25-.56-.4-.83l-.31-.53c-.16-.27-.32-.54-.49-.81l-.4-.53a7.51,7.51,0,0,0-.54-.72c-.22-.28-.47-.54-.71-.8s-.22-.25-.34-.36l0,0-64-64a16,16,0,0,0-22.62,22.62L377.37,240H224a16,16,0,0,0,0,32H377.37l-36.68,36.69a16,16,0,1,0,22.62,22.62l64-64,0,0c.12-.11.22-.24.34-.36s.49-.52.71-.8.36-.47.54-.71l.4-.54c.17-.26.33-.54.49-.81l.31-.53c.15-.27.27-.55.4-.83s.19-.39.28-.59.2-.54.29-.82.17-.44.24-.66.14-.56.21-.83.12-.46.17-.69.1-.66.15-1,.06-.37.08-.56c.05-.53.08-1.06.08-1.59S432,254.94,431.92,254.41Z"/><path class="svg-fill" d="M416,336a16,16,0,0,0-16,16v32a48.05,48.05,0,0,1-48,48H160a48.05,48.05,0,0,1-48-48V128a48.05,48.05,0,0,1,48-48H352a48.05,48.05,0,0,1,48,48v32a16,16,0,0,0,32,0V128a80.09,80.09,0,0,0-80-80H160a80.09,80.09,0,0,0-80,80V384a80.09,80.09,0,0,0,80,80H352a80.09,80.09,0,0,0,80-80V352A16,16,0,0,0,416,336Z"/></g></svg>