<svg xmlns="http://www.w3.org/2000/svg" xmlns:xlink="http://www.w3.org/1999/xlink" viewBox="0 0 381 385">
  <defs>
    <clipPath id="clip-Prancheta_19">
      <rect width="381" height="385"/>
    </clipPath>
  </defs>
  <g id="Prancheta_19" data-name="Prancheta – 19" clip-path="url(#clip-Prancheta_19)">
    <g id="undraw_No_data_re_kwbl" transform="translate(15.999 21.996)">
      <path id="Caminho_320" data-name="Caminho 320" d="M516.1,223.626H421.915a8.106,8.106,0,0,0-8.1,8.1V441.048l-1.079.329-23.1,7.076a4.321,4.321,0,0,1-5.392-2.866L315.516,221.095a4.319,4.319,0,0,1,2.866-5.392l35.6-10.9,103.219-31.595,35.6-10.9a4.312,4.312,0,0,1,5.392,2.86l17.567,57.382Z" transform="translate(-294.199 -146.892)" fill="#f2f2f2"/>
      <path id="Caminho_321" data-name="Caminho 321" d="M518.634,209.568,497.461,140.41A9.172,9.172,0,0,0,486,134.322l-50.058,15.322-103.214,31.6-50.058,15.328a9.183,9.183,0,0,0-6.088,11.458l72.364,236.355a9.189,9.189,0,0,0,8.776,6.493,9.061,9.061,0,0,0,2.682-.4l34.315-10.5,1.079-.335v-1.128l-1.079.329-34.633,10.605a8.1,8.1,0,0,1-10.109-5.37l-72.359-236.36a8.084,8.084,0,0,1,5.37-10.109l50.058-15.328L436.264,150.68l50.058-15.328a8.087,8.087,0,0,1,10.109,5.37l21.075,68.845.335,1.079h1.123Z" transform="translate(-276.182 -133.913)" fill="#3f3d56"/>
      <path id="Caminho_322" data-name="Caminho 322" d="M388.788,209.29a4.866,4.866,0,0,1-4.648-3.436l-6.952-22.706a4.857,4.857,0,0,1,3.223-6.066l94.956-29.071a4.862,4.862,0,0,1,6.067,3.222l6.952,22.707a4.863,4.863,0,0,1-3.222,6.067l-94.956,29.071a4.845,4.845,0,0,1-1.419.213Z" transform="translate(-322.575 -140.302)" fill="#7d41ff"/>
      <circle id="Elipse_197" data-name="Elipse 197" cx="10.794" cy="10.794" r="10.794" transform="translate(91.834 2.676)" fill="#7d41ff"/>
      <circle id="Elipse_198" data-name="Elipse 198" cx="6.835" cy="6.835" r="6.835" transform="translate(95.793 6.635)" fill="#fff"/>
      <path id="Caminho_323" data-name="Caminho 323" d="M719.327,521.844H536.906a4.593,4.593,0,0,1-4.588-4.588V298.674a4.593,4.593,0,0,1,4.588-4.588H719.327a4.593,4.593,0,0,1,4.588,4.588V517.256A4.593,4.593,0,0,1,719.327,521.844Z" transform="translate(-394.079 -207.638)" fill="#e6e6e6"/>
      <path id="Caminho_324" data-name="Caminho 324" d="M618.6,274.087H504.993a9.188,9.188,0,0,0-9.175,9.175V503.355l1.079-.329V283.262a8.105,8.105,0,0,1,8.1-8.1H618.937Zm99.036,0H504.993a9.188,9.188,0,0,0-9.175,9.175V530.448a9.188,9.188,0,0,0,9.175,9.175H717.638a9.188,9.188,0,0,0,9.175-9.175V283.262a9.188,9.188,0,0,0-9.175-9.175Zm8.1,256.362a8.105,8.105,0,0,1-8.1,8.1H504.993a8.106,8.106,0,0,1-8.1-8.1V283.262a8.105,8.105,0,0,1,8.1-8.1H717.638a8.106,8.106,0,0,1,8.1,8.1Z" transform="translate(-377.278 -198.432)" fill="#3f3d56"/>
      <path id="Caminho_325" data-name="Caminho 325" d="M712.982,289.549H613.676a4.863,4.863,0,0,1-4.857-4.857V260.944a4.863,4.863,0,0,1,4.857-4.857h99.306a4.863,4.863,0,0,1,4.857,4.857v23.747a4.863,4.863,0,0,1-4.857,4.857Z" transform="translate(-429.291 -190.147)" fill="#7d41ff"/>
      <circle id="Elipse_199" data-name="Elipse 199" cx="10.794" cy="10.794" r="10.794" transform="translate(223.244 45.971)" fill="#7d41ff"/>
      <circle id="Elipse_200" data-name="Elipse 200" cx="6.575" cy="6.575" r="6.575" transform="translate(227.463 50.19)" fill="#fff"/>
    </g>
  </g>
</svg>
