<svg xmlns="http://www.w3.org/2000/svg" xmlns:xlink="http://www.w3.org/1999/xlink" viewBox="0 0 49 47" alt="Settings">
  <defs>
    <clipPath id="clip-Prancheta_8">
      <rect width="49" height="47"/>
    </clipPath>
  </defs>
  <g id="Prancheta_8" data-name="Prancheta – 8" clip-path="url(#clip-Prancheta_8)">
    <g id="Grupo_158" data-name="Grupo 158" transform="translate(-70 -1793)">
      <g id="Grupo_105" data-name="Grupo 105" transform="translate(74 1795.41)">
        <g id="Grupo_71" data-name="Grupo 71" transform="translate(0 0.59)">
          <g id="Grupo_54" data-name="Grupo 54">
            <g id="Caminho_288" data-name="Caminho 288" fill="none">
              <path d="M7.479,0H34.4c4.13,0,7.479,2.845,7.479,6.355v28.6c0,3.51-3.348,6.355-7.479,6.355H7.479C3.348,41.309,0,38.464,0,34.954V6.355C0,2.845,3.348,0,7.479,0Z" stroke="none"/>
              <path d="M 7.478855133056641 2.999996185302734 C 5.051067352294922 2.999996185302734 2.999996185302734 4.536537170410156 2.999996185302734 6.355297088623047 L 2.999996185302734 34.95414733886719 C 2.999996185302734 36.77291870117188 5.051067352294922 38.3094596862793 7.478855133056641 38.3094596862793 L 34.40273666381836 38.3094596862793 C 36.83052444458008 38.3094596862793 38.88159561157227 36.77291870117188 38.88159561157227 34.95414733886719 L 38.88159561157227 6.355297088623047 C 38.88159561157227 4.536537170410156 36.83052444458008 2.999996185302734 34.40273666381836 2.999996185302734 L 7.478855133056641 2.999996185302734 M 7.478855133056641 -3.814697265625e-06 L 34.40273666381836 -3.814697265625e-06 C 38.53319549560547 -3.814697265625e-06 41.88159561157227 2.845367431640625 41.88159561157227 6.355297088623047 L 41.88159561157227 34.95414733886719 C 41.88159561157227 38.46408843994141 38.53319549560547 41.3094596862793 34.40273666381836 41.3094596862793 L 7.478855133056641 41.3094596862793 C 3.348396301269531 41.3094596862793 -3.814697265625e-06 38.46408843994141 -3.814697265625e-06 34.95414733886719 L -3.814697265625e-06 6.355297088623047 C -3.814697265625e-06 2.845367431640625 3.348396301269531 -3.814697265625e-06 7.478855133056641 -3.814697265625e-06 Z" stroke="none" class="svg-fill"/>
            </g>
          </g>
        </g>
      </g>
      <g id="Grupo_104" data-name="Grupo 104" transform="translate(81.568 1829.881) rotate(-90)">
        <rect id="Retângulo_177" data-name="Retângulo 177" width="27" height="3" rx="1.5" transform="translate(-0.119 2.432)" class="svg-fill"/>
        <rect id="Retângulo_178" data-name="Retângulo 178" width="27" height="3" rx="1.5" transform="translate(-0.119 11.432)" class="svg-fill"/>
        <rect id="Retângulo_179" data-name="Retângulo 179" width="27" height="3" rx="1.5" transform="translate(-0.119 21.432)" class="svg-fill"/>
        <circle id="Elipse_59" data-name="Elipse 59" cx="3.5" cy="3.5" r="3.5" transform="translate(16.881 0.432)" class="svg-fill"/>
        <circle id="Elipse_60" data-name="Elipse 60" cx="3.5" cy="3.5" r="3.5" transform="translate(3.881 9.432)" class="svg-fill"/>
        <circle id="Elipse_61" data-name="Elipse 61" cx="3.5" cy="3.5" r="3.5" transform="translate(12.881 19.432)" class="svg-fill"/>
      </g>
    </g>
  </g>
</svg>
