<svg xmlns="http://www.w3.org/2000/svg" viewBox="0 0 512 512"><defs><style>.cls-1{fill:#fff;}</style></defs><title>Settings</title><g id="settings"><path class="svg-fill" d="M431.5,192.5H420.19c-.9-2.3-1.84-4.59-2.83-6.85l8-8a32,32,0,0,0,0-45.26L380.1,87.15a32,32,0,0,0-45.26,0l-7.79,7.79Q323.56,93.41,320,92V81a32,32,0,0,0-32-32H224a32,32,0,0,0-32,32V92q-3.56,1.39-7.05,2.93l-7.79-7.79a32,32,0,0,0-45.26,0L86.65,132.4a32,32,0,0,0,0,45.26l8,8c-1,2.26-1.93,4.55-2.83,6.85H80.5a32,32,0,0,0-32,32v64a32,32,0,0,0,32,32H92.21Q93.52,323.8,95,327l-8.3,8.3a32,32,0,0,0,0,45.26l45.25,45.25a32,32,0,0,0,45.26,0l8.49-8.49q3.15,1.38,6.35,2.63v12a32,32,0,0,0,32,32h64a32,32,0,0,0,32-32V420q3.19-1.25,6.35-2.63l8.49,8.49a32,32,0,0,0,45.26,0l45.25-45.25a32,32,0,0,0,0-45.26l-8.3-8.3q1.44-3.24,2.74-6.54H431.5a32,32,0,0,0,32-32v-64A32,32,0,0,0,431.5,192.5Zm0,96h-23a16,16,0,0,0-15.25,11.15,143.43,143.43,0,0,1-9.71,23.23,16,16,0,0,0,2.85,18.76L402.73,358l-45.26,45.25L341,386.74a16,16,0,0,0-18.69-2.88,144,144,0,0,1-23.09,9.55A16,16,0,0,0,288,408.67V432H224V408.67a16,16,0,0,0-11.21-15.26,144,144,0,0,1-23.09-9.55A16,16,0,0,0,171,386.74l-16.48,16.48L109.28,358l16.32-16.33a16,16,0,0,0,2.85-18.76,143.43,143.43,0,0,1-9.71-23.23,16,16,0,0,0-15.25-11.15h-23v-64h22.67a16,16,0,0,0,15.28-11.26,143.08,143.08,0,0,1,9.69-23.54A16,16,0,0,0,125.26,171l-16-16,45.25-45.25,15.83,15.82a16,16,0,0,0,18.76,2.85,144.11,144.11,0,0,1,23.67-9.86A16,16,0,0,0,224,103.33V81h64v22.33a16,16,0,0,0,11.21,15.26,144.11,144.11,0,0,1,23.67,9.86,16,16,0,0,0,18.76-2.85l15.83-15.82L402.73,155l-16,16a16,16,0,0,0-2.88,18.69,143.08,143.08,0,0,1,9.69,23.54,16,16,0,0,0,15.28,11.26H431.5Z"/><path class="svg-fill" d="M256,176a80,80,0,1,0,80,80A80.09,80.09,0,0,0,256,176Zm0,128a48,48,0,1,1,48-48A48.05,48.05,0,0,1,256,304Z"/></g></svg>