<svg xmlns="http://www.w3.org/2000/svg" viewBox="0 0 512 512"><defs><style>.cls-1{fill:#fff;}</style></defs><title>Tasks</title><g id="tasks"><path class="svg-fill" d="M352,80V64a16,16,0,0,0-32,0V80H272V64a16,16,0,0,0-32,0V80H192V64a16,16,0,0,0-32,0V80a80.09,80.09,0,0,0-80,80V384a80.09,80.09,0,0,0,80,80H352a80.09,80.09,0,0,0,80-80V160A80.09,80.09,0,0,0,352,80Zm48,304a48.05,48.05,0,0,1-48,48H160a48.05,48.05,0,0,1-48-48V160a48.05,48.05,0,0,1,48-48v16a16,16,0,0,0,32,0V112h48v16a16,16,0,0,0,32,0V112h48v16a16,16,0,0,0,32,0V112a48.05,48.05,0,0,1,48,48Z"/><path class="svg-fill" d="M336,208H240a16,16,0,0,0,0,32h96a16,16,0,0,0,0-32Z"/><path class="svg-fill" d="M336,267H240a16,16,0,0,0,0,32h96a16,16,0,0,0,0-32Z"/><path class="svg-fill" d="M336,326H240a16,16,0,0,0,0,32h96a16,16,0,0,0,0-32Z"/><circle class="svg-fill" cx="176" cy="224" r="16"/><circle class="svg-fill" cx="176" cy="283" r="16"/><circle class="svg-fill" cx="176" cy="342" r="16"/></g></svg>