<svg xmlns="http://www.w3.org/2000/svg" xmlns:xlink="http://www.w3.org/1999/xlink" viewBox="0 0 74 71">
  <defs>
    <clipPath id="clip-Prancheta_18">
      <rect width="74" height="71"/>
    </clipPath>
  </defs>
  <g id="Prancheta_18" data-name="Prancheta – 18" clip-path="url(#clip-Prancheta_18)">
    <g id="noun_Trash_1560878" transform="translate(1)">
      <path id="Caminho_315" data-name="Caminho 315" d="M63.947,13.038H50.15V10.278A8.278,8.278,0,0,0,41.872,2H30.835a8.278,8.278,0,0,0-8.278,8.278v2.759H8.759a2.759,2.759,0,0,0,0,5.519h5.519a1.208,1.208,0,0,0,0,.166l2.449,41.715A8.278,8.278,0,0,0,25,68.226h22.71a8.278,8.278,0,0,0,8.278-7.788l2.442-41.715a1.209,1.209,0,0,0,0-.166h5.519a2.759,2.759,0,0,0,0-5.519ZM28.075,10.278a2.759,2.759,0,0,1,2.759-2.759H41.872a2.759,2.759,0,0,1,2.759,2.759v2.759H28.075ZM50.461,60.106a2.759,2.759,0,0,1-2.759,2.6H25a2.759,2.759,0,0,1-2.759-2.594L19.8,18.556H52.91Z" transform="translate(0)" class="svg-fill svg-stroke" stroke-width="1"/>
    </g>
  </g>
</svg>
