<svg xmlns="http://www.w3.org/2000/svg" xmlns:xlink="http://www.w3.org/1999/xlink" width="744" height="744" viewBox="0 0 744 744">
  <defs>
    <clipPath id="clip-Prancheta_7">
      <rect width="744" height="744"/>
    </clipPath>
  </defs>
  <g id="Prancheta_7" data-name="Prancheta – 7" clip-path="url(#clip-Prancheta_7)">
    <path id="Caminho_294" data-name="Caminho 294" d="M-14697.143-11591.146s204.548,93.02,241.44,226.007,101.77,246.085,225.016,271.63,239.81-133.94,286.815-109.888,72.048,136.969,72.048,136.969,18.206,112.27,0,146.063-154.687,113.568-154.687,113.568-145.483,41.1-252.11,41.649-282.684-4.542-332.2-22.729-57.569-16.607-86.319-46.7-74.028-81.864-81.211-123.045-11.661-111.631-8.345-135.894,30.468-240.38,30.94-257.871-.572-130.1,0-136.284S-14697.143-11591.146-14697.143-11591.146Z" transform="translate(14695 11649)" fill="#273150" opacity="0.051"/>
  </g>
</svg>
